<?xml version="1.0" encoding="utf-8"?>
<!-- Generator: Adobe Illustrator 27.0.1, SVG Export Plug-In . SVG Version: 6.00 Build 0)  -->
<svg version="1.1" id="Layer_1" xmlns="http://www.w3.org/2000/svg" xmlns:xlink="http://www.w3.org/1999/xlink" x="0px" y="0px"
	 viewBox="0 0 747.5 628.9" style="enable-background:new 0 0 747.5 628.9;" xml:space="preserve">
<style type="text/css">
	.st0{fill:#F10034;}
	.st1{fill:#1D1D35;}
	.st2{fill:#AB0403;}
</style>
<g>
	<path class="st0" d="M397.1,447.6c8,15.1,15.4,24.6,25.4,32.8c4.1,3.4,8.7,6.1,13.6,8.1c5.2,2.1,9.8,4.7,12.5,9.9
		c2.1,4.1,5,7.4,8.4,10.7c14.4,13.7,27.2,29,41.8,42.6c7.3,6.8,13.7,14.3,20.6,21.4c1.6,1.7,2.2,3.4,0.7,5.3
		c-1.6,1.9-150.2,2.1-192.7,3.8c-43.2,1.8-85.4,9.7-126.8,22.5c-20.6,6.4-41.4,12.7-63.2,13.5c-27.5,1-54.5-1.4-79.8-13.8
		c-5.1-2.5-9.6-5.9-14.9-8c-6.7-2.6-14.1-4.5,0-5.4c9-0.6,17.9-2.3,26.9-3.4c20.2-2.5,39.8-7.7,59-14.4
		c29.2-10.1,56.4-24.3,82.6-40.8c13.3-8.3,25.8-17.6,38-27.3c15.6-12.4,27-28.3,35.8-46.3c14.1-28.5,22.4-59,32.8-88.8
		c8.9-25.4,17.6-50.9,30-75c0.4-0.7,1-1.5,1-2.3c-0.3-8.1,6.6-9.8,11.7-12.5c11-5.6,22.9-7.4,35.3-7c9.4,0.3,19,1.5,28.3-1.5
		c2.9-0.9,4.3,0.7,5.2,3.2c1.7,5.4,3.5,10.7,5.3,16.1c0.3,0.8,3.1,8.1,3.4,9.1c2.2,6.1,5.2,11.9,7,18c1.9,6.3,2.7,13,4.3,19.5
		c1.2,4.7,3.4,21.7,4.4,25.3c3.5,12.4,5.8,25.2,10.8,37.2c5.5,13.2,14.6,22.8,28,28.1c14.2,5.6,29.1,8.6,44.4,7.5
		c11.4-0.8,22.6-3.4,33.9-5.2c8.2-1.4,16.4-1.1,25.3-1c-2.4,5.2-3.6,10.1-3.6,15.3c0,5.8,0.3,11.3,4.8,15.6
		c1.9,1.8-9.4,4.8-10.7,5.3c-5.3,2.2-10.2,2.2-15.8,0c-7.5-3-15.7-0.7-23.6-0.9c-10.8-0.4-18.6,6.5-27.5,10.6
		c-13.9,6.4-28.6,9.5-43.7,11c-7.1,0.7-14.3,0.8-21.4,0.4c-23.4-1.3-38.2-19.3-43.6-25.1c-8-8.7-13-20.8-22.9-45
		c0,0-14.9-36.3-14.1-67.4c0,0,0,0,0,0c0.1,0,0.3,29.6,8.1,59.3C384.3,417.5,388.6,431.6,397.1,447.6z"/>
	<path class="st0" d="M383.2,41.3c1.1-1.7,1.9-3,2.6-4.3c4.4-8.1,9.7-9.5,18.2-5.2c11.2,5.7,19.3,15.1,28,23.7
		c14.5,14.4,28.1,29.7,41.8,44.9c13.4,14.8,26,30.2,39.4,45c7.4,8.1,16.6,14.2,25.5,20.7c18.9,13.9,37.8,27.7,57.6,40.2
		c1.1,0.7,2.2,1.5,2.6,3.1c-7.4,3.3-15.4,3.3-23.3,4.2c-18.6,2.2-37.1,1.6-55.6-1.2c-12.1-1.8-23.4-6.2-34.3-11.6
		c-4.5-2.2-9-4.2-13.6-6.3c-2.5-1.1-5.1-1.3-7.8-0.9c-8.8,1.4-17.7,2.8-26.7,4.2c0.4,3.1,2.2,3.7,4.9,3.3c3.4-0.5,7-0.4,10.4-1.2
		c11.1-2.8,21.3-0.2,31.3,4.6c14.6,7.1,29.9,12.1,46.2,13.3c2.6,0.2,4.7,2,7.5,1.3c-0.6,1.5-1.5,2-2.7,2.4
		c-18.5,6.5-35.9,15.6-53.5,24c-15.2,7.2-30.7,13.6-47.4,16.6c-3.2,0.6-6.1,1.7-9,3c-8.3,3.7-17,4.3-25.9,3.7
		c-13.3-0.9-26.2,0.6-38.6,5.8c-3.6,1.5-7,3.4-11.2,5.5c6-20.2,15.8-36.5,34.8-45.7c14-6.7,28.4-12.3,42.7-18.2
		c2.9-1.2,10.6-32.3,11.4-32.2c-0.4-14-4.2-27-8.3-40c-5-15.8-10.5-31.6-21-44.4c-6-7.3-7.2-14.1-7.2-22.7
		c0-10.5-5.2-19.1-13.7-25.4c-2.9-2.1-6.3-2.7-9.9-2.8c-11.8-0.1-23.6-0.3-35.4-0.5c-1.6,0-3.9,0.4-4.3-1.6
		c-0.3-1.7,2.1-1.8,3.4-2.4c11.8-5,23.7-9.6,36.2-12.9c3.8-1,5.9-0.8,4.5,3.9C382.1,37.4,381.8,39,383.2,41.3z"/>
	<path class="st1" d="M736.2,425.1c-0.1,2.4-0.3,6-0.6,10.4c-1.9,33.6-2,29.9-2.3,36c-0.5,13.6-0.7,27.3-0.8,41
		c0,3.1-1.4,3.5-3.9,3.5c-7.7-0.1-15.4,0-23,0c-43,0-86.1,0-129.1,0c-6.3,0-12.7,0.7-19,0.5c-2.2-0.1-4.6-0.6-6.6-2.8
		c-3.6-4.2-6.8-8.8-10.9-12.6c-2.5-2.3-1-6.9,2.2-7.9c24.6-7.3,48.3-17.3,72.7-25.6c14-4.8,28-9.6,41.9-14.5
		c28.2-10,41.6-15.6,71.2-25.4C731.5,426.6,734.3,425.7,736.2,425.1z"/>
	<path class="st0" d="M536.4,421.1c-12.4-12.2-23.5-25.4-33.3-39.7c-3.6-5.2-26-27.6-25.3-35c0.6-6.6-2-7.5-7.7-8.5
		c-6-1.1-9.7-6.9-12.1-12.3c-3.5-7.8-5.7-16.2-10.6-23.4c-2-3-2-6.7-1.6-10.2c0.9-8.3,3.5-16.3,4.2-24.6c0.2-2.3,1.6-3.9,3.9-4.7
		c25.1-9.3,48.9-21.8,73.1-33c4.2-1.9,5.4-1.1,5.7,3.2c0.4,8.1,0.9,16.3,1.6,24.4c0.3,2.8-0.5,4.4-3.1,5.3c-7.5,2.7-9.8,7.8-9.7,16
		c0.1,15.2,3.2,30.1,2.8,45.3c-0.2,6.3,0,12.6-1.3,18.8c-1.6,8,0.7,15.9,1.5,23.8c1,10,0.9,20.2,3,30.2
		C529.3,405.2,532.5,413.2,536.4,421.1z"/>
	<path class="st0" d="M608.6,460.5c-11.7-3.3-13.7-13-12.4-21c0.9-5.6,6.4-6.8,9.8-10c1.5-1.5,1.6,2.5,3.8,1.3
		c-1.4-3.7,1.3-4.6,4.1-5.9c10.2-4.8,19.9-10.6,30.4-14.7c11.1-4.4,22.7-4.8,33.6,1.8c3.1,1.9,6.3,3.7,8.8,6.4
		c1.5,1.7,3.8,3.8,2.9,5.9c-1.2,2.8-3.6,5.4-7.1,5.6c-3.8,0.2-6.9-0.1-10.4-2.9c-8.2-6.6-26.6-1.9-31.8,7.6
		c-1.3,2.4-2.8,3.9-5.4,4.6c-9.4,2.7-17.2,9.6-27.4,10.1c-2.1,0.1-1.5,1.9-1.5,3C605.7,455.1,607.4,457.4,608.6,460.5z"/>
</g>
</svg>
